<svg xmlns="http://www.w3.org/2000/svg" width="500" height="400" viewBox="0 0 500 400">
  <rect width="100%" height="100%" fill="black"/>
  <!-- Left Raven -->
  <path d="M180,220 
           Q120,150 200,100 
           Q160,100 140,50 
           Q190,70 210,30 
           Q220,70 275,80 
           Q230,100 240,150 
           Q210,130 200,180 
           Q180,200 180,220 Z"
        stroke="white" stroke-width="6" fill="none"/>
  <!-- Right Raven (mirrored in a flying curve) -->
  <path d="M320,220 
           Q380,150 300,100 
           Q340,100 360,50 
           Q310,70 290,30 
           Q280,70 225,80 
           Q270,100 260,150 
           Q290,130 300,180 
           Q320,200 320,220 Z"
        stroke="white" stroke-width="6" fill="none"/>
</svg>

