<svg xmlns="http://www.w3.org/2000/svg" viewBox="0 0 200 100" width="500" height="250">
  <!-- Huginn -->
  <path d="M50,50 C40,30 30,30 20,50 C10,70 30,90 50,70 C70,50 60,70 50,50 Z" fill="black"/>
  <circle cx="30" cy="50" r="3" fill="white"/> <!-- Eye -->
  <path d="M20,50 L10,40 L15,50 L10,60 Z" fill="black"/> <!-- Beak -->

  <!-- Muninn -->
  <path d="M150,50 C140,30 130,30 120,50 C110,70 130,90 150,70 C170,50 160,70 150,50 Z" fill="black"/>
  <circle cx="130" cy="50" r="3" fill="white"/> <!-- Eye -->
  <path d="M120,50 L110,40 L115,50 L110,60 Z" fill="black"/> <!-- Beak -->

  <!-- Branch -->
  <line x1="10" y1="80" x2="190" y2="80" stroke="brown" stroke-width="5"/>
</svg>

