<?xml version="1.0" encoding="UTF-8"?>
<svg viewBox="0 0 400 400" xmlns="http://www.w3.org/2000/svg">
  <title>Two Stylized Ravens Flying Around Each Other</title>
  
  <rect width="400" height="400" fill="#000"/>
  
  <!-- Left Raven (flying rightward) -->
  <g fill="#fff" transform="rotate(-20 100 200)">
    <!-- Body -->
    <ellipse cx="100" cy="200" rx="40" ry="25" />
    <!-- Head -->
    <circle cx="70" cy="190" r="15" />
    <!-- Beak -->
    <polygon points="55,190 45,185 45,195" />
    <!-- Eye -->
    <circle cx="65" cy="185" r="3" fill="#000" />
    <!-- Left Wing -->
    <path d="M70 190 Q30 150 10 200 Q30 250 70 210" />
    <!-- Right Wing -->
    <path d="M70 190 Q30 230 10 200 Q30 170 70 210" />
    <!-- Tail -->
    <path d="M140 200 Q160 180 180 200 Q160 220 140 200" />
  </g>
  
  <!-- Right Raven (flying leftward) -->
  <g fill="#fff" transform="rotate(20 300 200)">
    <!-- Body -->
    <ellipse cx="300" cy="200" rx="40" ry="25" transform="scale(-1,1)" />
    <!-- Head -->
    <circle cx="330" cy="190" r="15" transform="scale(-1,1)" />
    <!-- Beak -->
    <polygon points="345,190 355,185 355,195" transform="scale(-1,1)" />
    <!-- Eye -->
    <circle cx="335" cy="185" r="3" fill="#000" transform="scale(-1,1)" />
    <!-- Left Wing -->
    <path d="M330 190 Q370 150 390 200 Q370 250 330 210" transform="scale(-1,1)" />
    <!-- Right Wing -->
    <path d="M330 190 Q370 230 390 200 Q370 170 330 210" transform="scale(-1,1)" />
    <!-- Tail -->
    <path d="M260 200 Q240 180 220 200 Q240 220 260 200" transform="scale(-1,1)" />
  </g>
  
</svg>
