<svg xmlns="http://www.w3.org/2000/svg" viewBox="0 0 480 340" width="480" height="340">
  <!-- Background -->
  <rect width="100%" height="100%" fill="black"/>
  
  <!-- Left Raven -->
  <path d="M 110 120 Q 90 90, 150 85 Q 120 70, 170 55 Q 100 50, 120 130 Q 100 160, 150 150 Q 110 120, 138 130 Q 115 110, 110 120 Z"
        stroke="white" stroke-width="6" fill="none"/>
  <ellipse cx="135" cy="100" rx="40" ry="30" stroke="white" stroke-width="6" fill="none"/>
  <circle cx="120" cy="92" r="7" fill="white"/>
  <ellipse cx="113" cy="133" rx="10" ry="6" fill="none" stroke="white" stroke-width="6"/>

  <!-- Right Raven -->
  <path d="M 370 120 Q 390 90, 330 85 Q 360 70, 310 55 Q 380 50, 360 130 Q 380 160, 330 150 Q 370 120, 342 130 Q 365 110, 370 120 Z"
        stroke="white" stroke-width="6" fill="none"/>
  <ellipse cx="345" cy="100" rx="40" ry="30" stroke="white" stroke-width="6" fill="none"/>
  <circle cx="360" cy="92" r="7" fill="white"/>
  <ellipse cx="367" cy="133" rx="10" ry="6" fill="none" stroke="white" stroke-width="6"/>

  <!-- Stylized J -->
  <path d="M50,245 Q30,270 55,310 Q80,340 120,325 Q160,310 145,280 Q140,260 90,270 Q50,245 50,245 Z"
        stroke="white" stroke-width="10" fill="none"/>
  <!-- Stylized C knotwork -->
  <path d="M155,290 Q110,245 135,195 Q160,145 240,145 Q320,145 345,195 Q370,245 320,290 Q250,340 190,310 Q170,298 190,285 Q230,285 300,220"
        stroke="white" stroke-width="10" fill="none"/>
  <!-- Stylized B knotwork -->
  <path d="M265,164 Q330,145 380,195 Q430,245 380,290 Q330,340 265,320 Q230,300 265,270 Q300,245 345,290 Q390,335 430,320 Q470,305 430,270 Q390,235 345,250 Q300,265 315,195 Q330,125 265,164 Z"
        stroke="white" stroke-width="10" fill="none"/>

  <!-- PUBLISHING text beneath, much smaller -->
  <text x="240" y="340" fill="white" font-family="serif" font-size="32" text-anchor="middle">PUBLISHING</text>
</svg>
