<svg viewBox="0 0 200 200" xmlns="http://www.w3.org/2000/svg" width="200" height="200" fill="none" stroke="black" stroke-width="3" stroke-linejoin="round">
  <!-- Knot circle -->
  <circle cx="100" cy="100" r="95" stroke="black" stroke-width="4" fill="none"/>
  
  <!-- Left raven head (Hugin) -->
  <path d="M60 60 Q55 85 70 100 Q55 115 60 140 Q80 130 80 100 Q80 70 60 60 Z" fill="black"/>
  <circle cx="65" cy="80" r="4" fill="white"/>
  
  <!-- Right raven head (Munin) -->
  <path d="M140 60 Q145 85 130 100 Q145 115 140 140 Q120 130 120 100 Q120 70 140 60 Z" fill="black"/>
  <circle cx="135" cy="80" r="4" fill="white"/>
  
  <!-- Knot detail: infinity loop -->
  <path d="M50 100 Q100 130 150 100 Q100 70 50 100 Z" stroke="black" stroke-width="3" fill="none"/>
  
  <!-- Interwoven knot bands (simplified) -->
  <path d="M70 120 Q100 150 130 120" stroke="black" stroke-width="4" fill="none"/>
  <path d="M130 80 Q100 50 70 80" stroke="black" stroke-width="4" fill="none"/>
</svg>

