<svg viewBox="0 0 200 200" xmlns="http://www.w3.org/2000/svg" fill="none" stroke="black" stroke-width="2">
  <!-- Raven 1 -->
  <path d="M100,50 
           C120,40 140,60 130,80 
           C125,90 110,95 100,90 
           C90,85 85,70 90,60 
           C95,55 100,50 100,50 
           Z" fill="black"/>

  <!-- Raven 2 -->
  <path d="M100,150 
           C80,160 60,140 70,120 
           C75,110 90,105 100,110 
           C110,115 115,130 110,140 
           C105,145 100,150 100,150 
           Z" fill="black"/>

  <!-- Spiral motion lines -->
  <path d="M100,50 
           Q105,100 100,150 
           Q95,100 100,50" stroke="gray" stroke-width="1" fill="none"/>
</svg>
